<svg width="288" height="47" viewBox="0 0 288 47" fill="none" xmlns="http://www.w3.org/2000/svg">
<path d="M60.5641 12.6016V39.4626H55.5044V12.6016H47.2344V8.30215H68.7916V12.6016H60.5641Z" fill="white"/>
<path d="M73.3199 22.4989C73.816 21.1651 74.4679 20.1789 75.2758 19.5404C76.0978 18.9018 77.1112 18.5826 78.3159 18.5826C78.9679 18.5826 79.6057 18.6606 80.2293 18.8167C80.8671 18.9728 81.4907 19.1998 82.1001 19.4978L80.4419 23.4141C80.045 23.1303 79.6128 22.9246 79.145 22.7969C78.6915 22.655 78.1813 22.584 77.6144 22.584C76.0837 22.584 74.9853 23.2013 74.3191 24.4358C73.653 25.6561 73.3199 27.7136 73.3199 30.6083V39.4626H68.7066V19.2424H73.3199V22.4989Z" fill="white"/>
<path d="M103.7 39.4626H99.0866V36.8446C98.2645 38.0082 97.3008 38.8738 96.1953 39.4414C95.1039 40.0089 93.8496 40.2927 92.4323 40.2927C89.5835 40.2927 87.3371 39.3207 85.693 37.3768C84.0631 35.4186 83.2481 32.7438 83.2481 29.3525C83.2481 26.1315 84.0844 23.5347 85.7568 21.5624C87.4292 19.5758 89.6119 18.5826 92.3047 18.5826C93.9488 18.5826 95.352 18.9302 96.5141 19.6255C97.6905 20.3066 98.548 21.2928 99.0866 22.584V19.2849H103.7V39.4626ZM99.2141 29.3099C99.2141 27.2241 98.7251 25.5993 97.7472 24.4358C96.7834 23.2722 95.4299 22.6905 93.6866 22.6905C91.9433 22.6905 90.5685 23.2935 89.5623 24.4996C88.5701 25.6916 88.0741 27.3518 88.0741 29.4802C88.0741 31.6229 88.556 33.2759 89.5197 34.4395C90.4835 35.6031 91.8441 36.1848 93.6016 36.1848C95.2598 36.1848 96.6063 35.5534 97.6409 34.2905C98.6897 33.0276 99.2141 31.3674 99.2141 29.3099Z" fill="white"/>
<path d="M117.157 40.6759L106.591 19.2849H111.63L116.03 29.4376C116.172 29.7498 116.342 30.2181 116.541 30.8424C116.739 31.4668 116.945 32.2117 117.157 33.0773C117.299 32.4671 117.462 31.8641 117.646 31.2681C117.845 30.658 118.078 30.0478 118.348 29.4376L122.727 19.2849H127.745L117.157 40.6759Z" fill="white"/>
<path d="M150.067 30.0549H133.952C134.066 31.9421 134.626 33.4178 135.632 34.4821C136.638 35.5321 137.977 36.0571 139.65 36.0571C141.138 36.0571 142.378 35.745 143.37 35.1206C144.362 34.4963 145.227 33.4888 145.964 32.0982L149.854 34.2692C148.721 36.2983 147.318 37.8095 145.645 38.8028C143.973 39.7961 142.01 40.2927 139.756 40.2927C136.525 40.2927 133.952 39.3066 132.039 37.3342C130.126 35.3618 129.169 32.7296 129.169 29.4376C129.169 26.2734 130.154 23.6766 132.124 21.6475C134.108 19.6042 136.652 18.5826 139.756 18.5826C143.002 18.5826 145.532 19.512 147.346 21.3708C149.16 23.2297 150.067 25.8335 150.067 29.1822V30.0549ZM145.284 26.9474C145.099 25.5 144.547 24.4003 143.625 23.6483C142.704 22.882 141.443 22.4989 139.841 22.4989C138.325 22.4989 137.106 22.8678 136.185 23.6057C135.263 24.3436 134.618 25.4574 134.25 26.9474H145.284Z" fill="white"/>
<path d="M155.106 39.4626V6.47168H159.719V39.4626H155.106Z" fill="white"/>
<path d="M166.543 39.4626V6.47168H171.157V39.4626H166.543Z" fill="white"/>
<path d="M177.364 10.5583C177.364 9.77787 177.648 9.10386 178.215 8.53628C178.796 7.96869 179.483 7.6849 180.277 7.6849C181.099 7.6849 181.779 7.96159 182.318 8.51499C182.871 9.0542 183.147 9.7353 183.147 10.5583C183.147 11.3813 182.871 12.0766 182.318 12.6442C181.765 13.1976 181.085 13.4743 180.277 13.4743C179.483 13.4743 178.796 13.1905 178.215 12.6229C177.648 12.0411 177.364 11.3529 177.364 10.5583ZM177.981 39.4626V19.2849H182.594V39.4626H177.981Z" fill="white"/>
<path d="M208.17 39.4626H203.556V36.8446C202.734 38.0082 201.77 38.8738 200.665 39.4414C199.574 40.0089 198.319 40.2927 196.902 40.2927C194.053 40.2927 191.807 39.3207 190.163 37.3768C188.533 35.4186 187.718 32.7438 187.718 29.3525C187.718 26.1315 188.554 23.5347 190.227 21.5624C191.899 19.5758 194.082 18.5826 196.774 18.5826C198.419 18.5826 199.822 18.9302 200.984 19.6255C202.16 20.3066 203.018 21.2928 203.556 22.584V19.2849H208.17V39.4626ZM203.684 29.3099C203.684 27.2241 203.195 25.5993 202.217 24.4358C201.253 23.2722 199.9 22.6905 198.156 22.6905C196.413 22.6905 195.038 23.2935 194.032 24.4996C193.04 25.6916 192.544 27.3518 192.544 29.4802C192.544 31.6229 193.026 33.2759 193.989 34.4395C194.953 35.6031 196.314 36.1848 198.071 36.1848C199.73 36.1848 201.076 35.5534 202.111 34.2905C203.159 33.0276 203.684 31.3674 203.684 29.3099Z" fill="white"/>
<path d="M214.547 39.4626V19.2849H218.884V22.584C219.806 21.1935 220.89 20.1789 222.137 19.5404C223.384 18.9018 224.901 18.5826 226.687 18.5826C228.189 18.5826 229.465 18.8238 230.513 19.3062C231.576 19.7745 232.406 20.4769 233.001 21.4134C233.355 21.9668 233.61 22.6124 233.766 23.3503C233.922 24.0881 234 25.3794 234 27.2241V39.4626H229.344V29.0971C229.344 26.4436 229.018 24.6841 228.366 23.8185C227.728 22.9388 226.588 22.4989 224.943 22.4989C223.866 22.4989 222.903 22.6976 222.052 23.0949C221.216 23.4922 220.557 24.0527 220.075 24.7763C219.735 25.2588 219.494 25.8831 219.352 26.6494C219.225 27.4014 219.161 28.6076 219.161 30.2677V39.4626H214.547Z" fill="white"/>
<path d="M14.443 33.5515L20.3596 39.3842L26.2762 33.5515L20.3596 27.7189L14.443 33.5515ZM20.3596 5.24504V5.25381C18.6662 5.25381 16.9728 5.89116 15.6827 7.16293L15.6768 7.15709C14.3896 8.42886 13.7431 10.1012 13.7431 11.7735C13.7431 13.4487 14.3867 15.1181 15.6708 16.384H15.6797L20.3596 20.9946L25.0366 16.384H25.0455C26.3385 15.1093 26.985 13.4399 26.985 11.7735H26.9761C26.9761 10.1041 26.3296 8.43471 25.0395 7.16293C23.7405 5.88531 22.0471 5.24504 20.3596 5.24504ZM29.6868 36.9137L22.0649 44.4274L20.3596 46.1085L18.6543 44.4274L11.0325 36.9137L3.41057 44.4274L0 41.0652L16.952 24.3568L12.2751 19.7462L12.281 19.7404C10.0419 17.5359 8.92383 14.6503 8.92383 11.7735C8.92383 8.89372 10.0419 6.01103 12.2751 3.80954V3.80369C14.5083 1.60221 17.4354 0.5 20.3596 0.5V0.508771C23.2898 0.508771 26.2199 1.60805 28.4471 3.80369C30.6803 6.00518 31.7954 8.89079 31.7954 11.7764H31.7865C31.7865 14.6591 30.6714 17.5418 28.4412 19.7433L28.4471 19.7491L23.7702 24.3568L40.7193 41.0652L37.3087 44.4274L29.6868 36.9137Z" fill="white"/>
</svg>
